<svg class="i-cart" viewBox="0 0 32 32" width="21" height="21" version="1.1" xmlns="http://www.w3.org/2000/svg" xmlns:xlink="http://www.w3.org/1999/xlink">
    <defs></defs>
    <path d="M1.188 1.063c-0.375 0-0.75 0.375-0.75 0.75 0 0.438 0.375 0.75 0.75 0.75 0.313 0 0.563-0.188 0.688-0.5h1.875l4.5 15.563c0 0 0 0.063 0 0l-1.938 4.75c0.313-0.188 0.75-0.313 1.125-0.313l1.688-4.063c0.063-0.188 0.125-0.25 0.125-0.438h18.813c0.375 0 0.813-0.313 0.875-0.688l2.625-12.125c0.063-0.375-0.188-0.688-0.563-0.688h-25.688l-0.688-2.375c-0.125-0.375-0.375-0.563-0.688-0.563zM7.563 22.563c-1.25 0-2.25 1-2.25 2.188 0 1.25 1 2.25 2.25 2.25 1.188 0 2.188-1 2.188-2.25 0-1.188-1-2.188-2.188-2.188zM25.563 22.563c-1.188 0-2.188 1-2.188 2.188 0 1.25 1 2.25 2.188 2.25s2.188-1 2.188-2.25c0-1.188-1-2.188-2.188-2.188zM9.625 23.063c0.25 0.313 0.375 0.625 0.5 0.938h12.875c0.125-0.313 0.313-0.625 0.5-0.938z"></path>
</svg>